<svg version="1.1" id="Layer_1" xmlns="http://www.w3.org/2000/svg" x="0" y="0" viewBox="0 0 200 200" xml:space="preserve"><style>.st0{fill:#d85a24}</style><path class="st0" d="M144.81 0H55.19C24.76 0 0 24.76 0 55.19v89.61C0 175.24 24.76 200 55.19 200h89.61c30.43 0 55.19-24.76 55.19-55.19V55.19C200 24.76 175.24 0 144.81 0zm37.45 144.81c0 20.65-16.8 37.45-37.45 37.45H55.19c-20.65 0-37.45-16.8-37.45-37.45V55.19c0-20.65 16.8-37.45 37.45-37.45h89.61c20.65 0 37.45 16.8 37.45 37.45l.01 89.62z"/><path class="st0" d="M100 48.47c-28.42 0-51.53 23.12-51.53 51.53 0 28.42 23.12 51.53 51.53 51.53s51.53-23.12 51.53-51.53S128.42 48.47 100 48.47zm0 85.32c-18.63 0-33.79-15.16-33.79-33.79S81.37 66.21 100 66.21s33.79 15.16 33.79 33.79-15.16 33.79-33.79 33.79zm53.7-100.37c-3.42 0-6.78 1.38-9.19 3.81-2.43 2.41-3.82 5.77-3.82 9.2 0 3.42 1.4 6.78 3.82 9.2 2.41 2.41 5.77 3.81 9.19 3.81 3.43 0 6.78-1.4 9.2-3.81 2.43-2.43 3.81-5.78 3.81-9.2 0-3.43-1.38-6.79-3.81-9.2-2.41-2.43-5.77-3.81-9.2-3.81z"/></svg>