<svg xmlns="http://www.w3.org/2000/svg" viewBox="0 0 166.67 200"><path d="M140.98 146.29H130l.05-6.38c0-2.83 2.33-5.15 5.17-5.15h.7c2.85 0 5.18 2.32 5.18 5.15l-.12 6.38zm-41.17-13.66c-2.78 0-5.06 1.87-5.06 4.16v31.01c0 2.29 2.28 4.15 5.06 4.15 2.8 0 5.08-1.87 5.08-4.15v-31.01c-.01-2.29-2.29-4.16-5.08-4.16zm66.86-17.34v58.99c0 14.15-12.27 25.73-27.27 25.73H27.27C12.27 200 0 188.42 0 174.27v-58.99c0-14.15 12.27-25.73 27.27-25.73H139.4c15 .01 27.27 11.59 27.27 25.74zM34.75 180.68l-.01-62.14h13.9v-9.21l-37.05-.06v9.05l11.57.03v62.31h11.59zm41.67-52.88H64.83v33.18c0 4.8.29 7.2-.02 8.05-.94 2.57-5.18 5.31-6.83.28-.28-.88-.03-3.54-.04-8.1l-.04-33.41H46.37l.04 32.88c.01 5.04-.11 8.8.04 10.51.28 3.02.18 6.53 2.98 8.54 5.21 3.76 15.21-.56 17.71-5.93l-.02 6.85 9.31.01-.01-52.86zm37.07 37.99l-.02-27.62c-.01-10.52-7.88-16.83-18.57-8.31l.05-20.53-11.58.02-.06 70.87 9.52-.14.87-4.41c12.16 11.16 19.81 3.51 19.79-9.88zm36.27-3.66l-8.69.05c0 .34-.02.74-.02 1.18v4.85c0 2.6-2.14 4.71-4.75 4.71h-1.7c-2.61 0-4.75-2.11-4.75-4.71v-12.75h19.9v-7.49c0-5.47-.14-10.94-.59-14.07-1.42-9.9-15.32-11.47-22.34-6.4-2.2 1.58-3.88 3.7-4.86 6.54-.99 2.85-1.48 6.74-1.48 11.68v16.47c0 27.36 33.24 23.49 29.28-.06zm-44.58-89.39c.6 1.45 1.53 2.63 2.79 3.52 1.24.88 2.84 1.32 4.74 1.32 1.67 0 3.15-.45 4.44-1.38 1.28-.93 2.37-2.31 3.25-4.16l-.22 4.55h12.92V21.64h-10.17V64.4c0 2.32-1.91 4.21-4.24 4.21-2.32 0-4.23-1.9-4.23-4.21V21.64h-10.61V58.7c0 4.72.09 7.87.23 9.46.14 1.58.51 3.1 1.1 4.58zM66.04 41.71c0-5.27.44-9.39 1.31-12.36.88-2.96 2.46-5.34 4.75-7.13 2.28-1.8 5.2-2.7 8.76-2.7 2.99 0 5.55.59 7.69 1.74 2.15 1.16 3.81 2.66 4.96 4.51 1.17 1.86 1.97 3.77 2.39 5.72.43 1.98.65 4.97.65 9v13.89c0 5.1-.2 8.84-.6 11.22-.39 2.39-1.24 4.6-2.55 6.68-1.29 2.05-2.95 3.59-4.97 4.57-2.04.99-4.37 1.47-7.01 1.47-2.94 0-5.42-.41-7.47-1.26-2.05-.84-3.64-2.12-4.76-3.81-1.14-1.69-1.94-3.76-2.43-6.16-.49-2.4-.72-6.02-.72-10.83V41.71zm10.12 21.82c0 3.11 2.32 5.65 5.14 5.65s5.13-2.54 5.13-5.65V34.29c0-3.11-2.31-5.65-5.13-5.65s-5.14 2.54-5.14 5.65v29.24zM40.4 78.3h12.19l.01-42.13L67 .07H53.68l-7.66 26.81L38.26 0h-13.2l15.32 36.19.02 42.11z" fill="#d85a24"/></svg>